# File created by Blade
# Date/Time:  Tue Apr 07 20:29:34 2015
# Frame Rate: 120.000 fps
#------------------------------------------------------
:FULLY-SPECIFIED
:DEGREES
1148
root 3.229944 33.139969 -4.649248 -18.337391 -0.941869 -22.305004
Spine 16.575754 -6.778450 18.196803
Head 11.306243 -2.040625 8.778378
LeftShoulder -18.158065 45.000666 9.788074
LeftArm 48.543805 9.441507 -75.994508
LeftForeArm -1.443109 -0.000000 15.276149
LeftHand 6.248013 0.000000 -7.421403
LeftHandThumb1 -26.253704 0.000000 33.147579
RightShoulder -5.269330 -5.096442 -11.670485
RightArm 15.844182 -13.665855 77.291793
RightForeArm -1.571673 0.000000 31.438247
RightHand 3.694239 0.000000 11.396907
RightHandThumb1 -24.326973 -0.000000 -32.862282
LeftUpLeg 8.703229 -2.232363 17.002626
LeftLeg 21.968647 -0.000000 -0.000000
LeftFoot -17.995377 9.151833 -11.217982
LeftToeBase -5.905070 -0.000000 0.000000
RightUpLeg -93.247451 -2.149060 12.701731
RightLeg 47.096347 -0.000000 -0.000000
RightFoot 43.463268 -8.584717 2.369628
RightToeBase 34.534048 -0.000000 -0.000000
1149
root 3.228167 33.144601 -4.687630 -18.062974 -0.874427 -22.285254
Spine 16.376473 -6.935043 18.093184
Head 11.228647 -1.921145 8.800748
LeftShoulder -18.229109 45.077353 9.717052
LeftArm 48.670962 9.284122 -75.888845
LeftForeArm -1.630453 -0.000000 15.115041
LeftHand 6.208886 -0.000000 -7.404644
LeftHandThumb1 -26.253704 0.000000 33.147579
RightShoulder -5.192986 -5.079563 -11.675410
RightArm 15.841626 -13.606575 77.353861
RightForeArm -1.665517 -0.000000 31.531148
RightHand 3.697529 0.000000 11.383340
RightHandThumb1 -24.326973 -0.000000 -32.862282
LeftUpLeg 8.300562 -1.857495 17.206273
LeftLeg 22.070927 -0.000000 -0.000000
LeftFoot -18.097388 8.151267 -12.275610
LeftToeBase -5.187178 -0.000000 0.000000
RightUpLeg -93.192353 -2.012222 12.895437
RightLeg 49.451342 -0.000000 -0.000000
RightFoot 43.456873 -8.280915 2.509381
RightToeBase 34.845254 -0.000000 -0.000000
1150
root 3.225233 33.148322 -4.722929 -17.802004 -0.772478 -22.237073
Spine 16.172623 -7.051024 17.959101
Head 11.161391 -1.971834 8.848890
LeftShoulder -18.186818 45.028458 9.754464
LeftArm 48.735652 9.204563 -75.705536
LeftForeArm -1.945102 0.000000 14.899994
LeftHand 6.181375 -0.000000 -7.516197
LeftHandThumb1 -26.253704 0.000000 33.147579
RightShoulder -5.167072 -5.101712 -11.677459
RightArm 15.827817 -13.508042 77.441025
RightForeArm -1.700201 -0.000000 31.623277
RightHand 3.686924 -0.000000 11.340324
RightHandThumb1 -24.326973 -0.000000 -32.862282
LeftUpLeg 7.898490 -1.512096 17.362900
LeftLeg 22.171268 -0.000000 -0.000000
LeftFoot -18.093171 7.316808 -13.137203
LeftToeBase -4.561659 -0.000000 0.000000
RightUpLeg -93.152847 -1.899281 13.045174
RightLeg 51.880795 -0.000000 -0.000000
RightFoot 43.355338 -7.959712 2.575788
RightToeBase 34.720251 -0.000000 -0.000000
1151
root 3.230308 33.151215 -4.756784 -17.588418 -0.654060 -22.169221
Spine 16.025364 -7.143799 17.829381
Head 11.067051 -1.966255 8.837321
LeftShoulder -18.103190 44.920880 9.833296
LeftArm 48.837301 9.214161 -75.495211
LeftForeArm -2.131467 0.000000 14.612184
LeftHand 6.279182 0.000000 -7.571244
LeftHandThumb1 -26.253704 0.000000 33.147579
RightShoulder -5.158922 -5.081006 -11.712517
RightArm 15.741601 -13.444580 77.509664
RightForeArm -1.669511 -0.000000 31.729249
RightHand 3.776499 0.000000 11.281617
RightHandThumb1 -24.326973 -0.000000 -32.862282
LeftUpLeg 7.539736 -1.198547 17.452225
LeftLeg 22.256971 -0.000000 -0.000000
LeftFoot -18.006237 6.595690 -13.744425
LeftToeBase -4.180097 -0.000000 0.000000
RightUpLeg -93.080606 -1.845592 13.251322
RightLeg 54.318611 -0.000000 -0.000000
RightFoot 43.232632 -7.655953 2.480968
RightToeBase 34.799664 -0.000000 -0.000000
1152
root 3.234636 33.153678 -4.785985 -17.358998 -0.494880 -22.087330
Spine 15.819722 -7.200095 17.694097
Head 11.010477 -2.014960 8.807138
LeftShoulder -17.981172 44.822356 9.922069
LeftArm 49.003879 9.240349 -75.211542
LeftForeArm -2.349802 -0.000000 14.320104
LeftHand 6.267864 0.000000 -7.616029
LeftHandThumb1 -26.253704 0.000000 33.147579
RightShoulder -5.181576 -5.079749 -11.754649
RightArm 15.604859 -13.361516 77.602148
RightForeArm -1.586031 -0.000000 31.848482
RightHand 3.776303 -0.000000 11.188293
RightHandThumb1 -24.326973 -0.000000 -32.862282
LeftUpLeg 7.201250 -1.019269 17.451984
LeftLeg 22.259671 -0.000000 -0.000000
LeftFoot -17.895626 6.129601 -14.161453
LeftToeBase -3.906772 -0.000000 0.000000
RightUpLeg -93.064949 -1.840890 13.457793
RightLeg 56.821704 -0.000000 -0.000000
RightFoot 43.083422 -7.590911 2.479335
RightToeBase 35.135369 -0.000000 -0.000000
1153
root 3.245816 33.153334 -4.810927 -17.132342 -0.312592 -21.938100
Spine 15.601670 -7.238282 17.506784
Head 10.971297 -2.078576 8.750727
LeftShoulder -17.904908 44.723486 9.978228
LeftArm 49.228828 9.344150 -74.856664
LeftForeArm -2.528973 0.000000 14.014565
LeftHand 6.212132 -0.000000 -7.758818
LeftHandThumb1 -26.253704 0.000000 33.147579
RightShoulder -5.192011 -5.155312 -11.818174
RightArm 15.472223 -13.204575 77.707824
RightForeArm -1.531725 -0.000000 31.993923
RightHand 3.866852 -0.000000 11.184746
RightHandThumb1 -24.326973 -0.000000 -32.862282
LeftUpLeg 6.899080 -0.935443 17.302543
LeftLeg 22.215784 -0.000000 -0.000000
LeftFoot -17.743159 5.936906 -14.291441
LeftToeBase -3.843643 -0.000000 0.000000
RightUpLeg -93.083185 -1.867754 13.616092
RightLeg 59.370604 -0.000000 -0.000000
RightFoot 42.899337 -7.715841 2.611377
RightToeBase 36.213759 -0.000000 -0.000000
